<svg height="512" viewBox="0 0 64 64" width="512" xmlns="http://www.w3.org/2000/svg" xmlns:xlink="http://www.w3.org/1999/xlink"><linearGradient id="New_Gradient_Swatch" gradientUnits="userSpaceOnUse" x1="15" x2="15" y1="63.741" y2="-.308"><stop offset="0" stop-color="#e93e3a"/><stop offset=".35" stop-color="#ed683c"/><stop offset=".7" stop-color="#f3903f"/><stop offset="1" stop-color="#fdc70c"/></linearGradient><linearGradient id="New_Gradient_Swatch-2" x1="8" x2="8" xlink:href="#New_Gradient_Swatch" y1="63.741" y2="-.308"/><linearGradient id="New_Gradient_Swatch-3" x1="17" x2="17" xlink:href="#New_Gradient_Swatch" y1="63.741" y2="-.308"/><linearGradient id="New_Gradient_Swatch-4" x1="28" x2="28" xlink:href="#New_Gradient_Swatch" y1="63.741" y2="-.308"/><linearGradient id="New_Gradient_Swatch-5" x1="10" x2="10" xlink:href="#New_Gradient_Swatch" y1="63.741" y2="-.308"/><linearGradient id="New_Gradient_Swatch-7" x1="21" x2="21" xlink:href="#New_Gradient_Swatch" y1="63.741" y2="-.308"/><linearGradient id="New_Gradient_Swatch-8" x1="30" x2="30" xlink:href="#New_Gradient_Swatch" y1="63.741" y2="-.308"/><linearGradient id="New_Gradient_Swatch-9" x1="38" x2="38" xlink:href="#New_Gradient_Swatch" y1="63.741" y2="-.308"/><linearGradient id="New_Gradient_Swatch-10" x1="14" x2="14" xlink:href="#New_Gradient_Swatch" y1="63.741" y2="-.308"/><linearGradient id="New_Gradient_Swatch-11" x1="33" x2="33" xlink:href="#New_Gradient_Swatch" y1="63.741" y2="-.308"/><linearGradient id="New_Gradient_Swatch-12" x1="39" x2="39" xlink:href="#New_Gradient_Swatch" y1="63.741" y2="-.308"/><linearGradient id="New_Gradient_Swatch-13" x1="32.106" x2="32.106" xlink:href="#New_Gradient_Swatch" y1="63.741" y2="-.308"/><path d="m18 31.071v-1.1a4.977 4.977 0 0 0 2-3.971v-1a1 1 0 0 0 1-1v-2a6 6 0 0 0 -12 0v2a1 1 0 0 0 1 1v1a4.977 4.977 0 0 0 2 3.974v1.1a7.011 7.011 0 0 0 -6 6.926v3a1 1 0 0 0 1 1h16a1 1 0 0 0 1-1v-3a7.011 7.011 0 0 0 -6-6.929zm-7-9.071a4 4 0 0 1 8 0v1h-.172a1 1 0 0 1 -.707-.293l-1.414-1.414a1 1 0 0 0 -1.414 0l-.828.828a2.98 2.98 0 0 1 -2.122.879h-1.343zm1.343 3a4.969 4.969 0 0 0 3.536-1.465l.121-.121.707.707a2.98 2.98 0 0 0 1.293.749v1.13a3 3 0 0 1 -6 0v-1zm2.657 6a5 5 0 0 0 1-.1v.687l-1 1-1-1v-.687a5 5 0 0 0 1 .1zm7 9h-14v-2a4.991 4.991 0 0 1 4.624-4.962l1.669 1.669a1 1 0 0 0 1.414 0l1.669-1.669a4.991 4.991 0 0 1 4.624 4.962z" fill="url(#New_Gradient_Swatch)"/><path d="m6 46h4v2h-4z" fill="url(#New_Gradient_Swatch-2)"/><path d="m12 46h10v2h-10z" fill="url(#New_Gradient_Swatch-3)"/><path d="m26 46h4v2h-4z" fill="url(#New_Gradient_Swatch-4)"/><path d="m6 50h8v2h-8z" fill="url(#New_Gradient_Swatch-5)"/><path d="m16 50h2v2h-2z" fill="url(#New_Gradient_Swatch-3)"/><path d="m20 50h2v2h-2z" fill="url(#New_Gradient_Swatch-7)"/><path d="m26 50h8v2h-8z" fill="url(#New_Gradient_Swatch-8)"/><path d="m36 50h4v2h-4z" fill="url(#New_Gradient_Swatch-9)"/><path d="m6 54h16v2h-16z" fill="url(#New_Gradient_Swatch-10)"/><path d="m26 54h14v2h-14z" fill="url(#New_Gradient_Swatch-11)"/><path d="m44.657 30.343a8 8 0 1 0 0 11.314 8.01 8.01 0 0 0 0-11.314zm-1.414 9.9a6 6 0 1 1 0-8.486 6.012 6.012 0 0 1 0 8.486z" fill="url(#New_Gradient_Swatch-12)"/><path d="m61.627 52.971-9.192-9.193a.982.982 0 0 0 -.435-.24v-40.538a1 1 0 0 0 -1-1h-48a1 1 0 0 0 -1 1v56a3 3 0 0 0 3 3h44a3 3 0 0 0 3-3v-4.344l3.971 3.971a2 2 0 0 0 2.828 0l2.828-2.827a2 2 0 0 0 0-2.829zm-8.485-5.657-2.828 2.828-1.414-1.414 2.828-2.828zm-21.213-4.243a10 10 0 1 1 14.142 0 10.009 10.009 0 0 1 -14.142 0zm12.071-31.071h2v14.27a11.874 11.874 0 0 0 -2-1.164zm6 30.757-.672-.672a12.05 12.05 0 0 0 .672-1.314zm0-11.528a11.907 11.907 0 0 0 -2-3.145v-16.084h2zm-2.515 13.256c.239-.238.458-.49.672-.743l1.45 1.45-1.415 1.415-1.45-1.45c.258-.214.505-.433.743-.672zm2.515-34.485h-2v-6h2zm-4 0h-2v-6h2zm-4-6v6h-38v-6zm-8 8h2v3.7l-.168-.252a1.039 1.039 0 0 0 -1.664 0l-.168.252zm-29 48a1 1 0 0 1 -1-1v-47h28v7a1 1 0 0 0 1.832.555l1.168-1.755 1.168 1.752a1 1 0 0 0 1.832-.552v-7h4v12.4a11.995 11.995 0 1 0 0 23.2v11.4a1 1 0 0 1 -1 1zm39 0h-.184a2.966 2.966 0 0 0 .184-1v-12.106a12.032 12.032 0 0 0 1.085-.566l.915.915v11.757a1 1 0 0 1 -1 1zm6-1a1 1 0 0 1 -1 1h-1.184a2.966 2.966 0 0 0 .184-1v-8.344l2 2zm7.385-1.787-5.657-5.657 2.828-2.828 5.658 5.656z" fill="url(#New_Gradient_Swatch-13)"/></svg>